# xmcd CD database file
#
# Track frame offsets:
#	150
#	18423
#	35601
#	53799
#	72699
#	90480
#	112155
#	133467
#	152325
#	170805
#	187737
#	206421
#	223047
#	243627
#	258867
#	277659
#
# Disc length: 4004 seconds
#
# Revision: 0
# Processed by: cddbd v1.5.2PL0 Copyright (c) Steve Scherf et al.
# Submitted via: CDex 1.70beta2
#
DISCID=e80fa210
DTITLE=Hildemaro - Exitos Romanticos
DYEAR=1994
DGENRE=Salsa
TTITLE0=Desde el Fondo de mi Corazon
TTITLE1=Hola
TTITLE2=Agua Caliente
TTITLE3=Amaneci Contigo
TTITLE4=Necesito de tu Amor
TTITLE5=Al Natural
TTITLE6=Embrujo de Amor
TTITLE7=Amante Amiga
TTITLE8=Sin Tabu
TTITLE9=Como Nadie
TTITLE10=Como me Cuesta vivir sin ti
TTITLE11=La Primera Vez
TTITLE12=Amiga de la Noche
TTITLE13=Te Equivocaste otra vez
TTITLE14=Apago la Luz
TTITLE15=Yo sin Ti
EXTD=YEAR: 1994
EXTT0=
EXTT1=
EXTT2=
EXTT3=
EXTT4=
EXTT5=
EXTT6=
EXTT7=
EXTT8=
EXTT9=
EXTT10=
EXTT11=
EXTT12=
EXTT13=
EXTT14=
EXTT15=
PLAYORDER=
